<svg width="101" height="60" viewBox="0 0 101 60" fill="none" xmlns="http://www.w3.org/2000/svg">
<path d="M98.5231 15.6597L100.97 2.09369C101.174 1.00382 100.3 0 99.1931 0H53.4605H19.3503C18.7095 0 18.0978 0.344168 17.7774 0.889101L1.23207 29.1109C0.911655 29.6558 0.911655 30.3442 1.23207 30.8891L17.7774 59.0822C18.0978 59.6271 18.7095 59.9713 19.3503 59.9713H42.741H53.4605H89.5805C90.4543 59.9713 91.2117 59.3403 91.3573 58.4799L93.8042 44.7419C94.0081 43.652 93.1342 42.6482 92.0273 42.6482H71.1418C70.0058 42.6482 69.161 41.6444 69.3649 40.5258L69.6562 38.9771C69.8018 38.1166 70.5592 37.5143 71.4331 37.5143H89.6387C90.5126 37.5143 91.27 36.8834 91.4447 36.0229L93.5129 24.3499C93.7168 23.26 92.8429 22.2562 91.7069 22.2562H74.7829C73.6469 22.2562 72.8021 21.2524 72.9769 20.1625L73.2391 18.6138C73.3847 17.7533 74.1421 17.1224 75.0451 17.1224H96.688C97.6201 17.1511 98.3774 16.5201 98.5231 15.6597ZM23.341 49.6463L12.3594 30.8891C12.039 30.3442 12.039 29.6558 12.3594 29.1109L23.341 10.3537C23.6614 9.80879 24.2731 9.46463 24.914 9.46463H46.9064C47.5473 9.46463 48.159 9.80879 48.4794 10.3537L59.461 29.1109C59.7815 29.6558 59.7815 30.3442 59.461 30.8891L48.4794 49.6463C48.159 50.1912 47.5473 50.5354 46.9064 50.5354H24.914C24.244 50.5354 23.6614 50.1912 23.341 49.6463Z" fill="url(#paint0_linear_1_13)"/>
<defs>
<linearGradient id="paint0_linear_1_13" x1="10.2348" y1="29.9946" x2="211.408" y2="29.9946" gradientUnits="userSpaceOnUse">
<stop stop-color="#B8005F"/>
<stop offset="1" stop-color="#00FFFF"/>
</linearGradient>
</defs>
</svg>
